<svg xmlns:dc="http://purl.org/dc/elements/1.1/" xmlns:cc="http://creativecommons.org/ns#" xmlns:rdf="http://www.w3.org/1999/02/22-rdf-syntax-ns#" xmlns:svg="http://www.w3.org/2000/svg" xmlns="http://www.w3.org/2000/svg" xmlns:xlink="http://www.w3.org/1999/xlink" id="svg183348" viewBox="150 340 700 65" height="65px" width="165px" version="1.1" >
  <metadata id="metadata183354">
    <rdf:rdf>
      <cc:work rdf:about="">
        <dc:format>image/svg+xml</dc:format>
        <dc:type rdf:resource="http://purl.org/dc/dcmitype/StillImage"></dc:type>
      </cc:work>
    </rdf:rdf>
  </metadata>
  <defs id="defs183352"></defs>
  <g id="logo-group">
    <image xlink:href="../nounpreview/170310.png" id="icon" width="200" height="200" x="412" y="0" style="display: none;"></image>
    <g id="title" style="font-style:normal;font-weight:700;font-size:72px;line-height:1;font-family:'Comfortaa Bold Alt1';font-variant-ligatures:none;text-align:center;text-anchor:middle" aria-label="maplay">
      <path id="path183356" style="font-style: normal; font-weight: 700; font-size: 72px; line-height: 1; font-family: &quot;Comfortaa Bold Alt1&quot;; font-variant-ligatures: none; text-align: center; text-anchor: middle; fill: rgb(0, 36, 60);" d="m 433.06156,-35.64 c -2.592,-2.736 -5.976,-4.104 -10.08,-4.104 -14.904,0 -22.68,0 -23.4,0 h -0.576 -13.968 c -0.936,0 -1.8,0.36 -2.448,1.008 -0.72,0.72 -1.008,1.512 -1.008,2.448 0,0.072 0,0.216 0,0.36 0,0.144 0,0.216 0,0.288 V -3.6 c 0,1.08 0.288,1.944 1.008,2.664 0.72,0.72 1.584,1.008 2.664,1.008 1.08,0 1.944,-0.288 2.664,-1.008 0.648,-0.72 1.008,-1.584 1.008,-2.664 v -20.304 c 0,-2.664 0.792,-4.824 2.376,-6.624 1.584,-1.728 3.672,-2.592 6.264,-2.592 2.448,0 4.392,0.792 5.832,2.304 1.44,1.512 2.232,3.744 2.232,6.624 V -3.6 c 0,1.08 0.288,1.944 1.008,2.664 0.72,0.72 1.584,1.008 2.664,1.008 1.08,0 1.944,-0.288 2.664,-1.008 0.648,-0.72 1.008,-1.584 1.008,-2.664 v -20.304 c 0,-2.664 0.792,-4.824 2.376,-6.624 1.584,-1.728 3.672,-2.592 6.192,-2.592 2.448,0 4.392,0.792 5.832,2.304 1.44,1.512 2.232,3.744 2.232,6.624 V -3.6 c 0,1.08 0.288,1.944 1.008,2.664 0.72,0.72 1.584,1.008 2.664,1.008 1.08,0 1.944,-0.288 2.664,-1.008 0.648,-0.72 1.008,-1.584 1.008,-2.664 v -20.592 c 0,-4.896 -1.296,-8.712 -3.888,-11.448 z" transform="translate(0 312.4142233313553) translate(252.00000000000006 35.53064961586641) scale(1.778918840180495) translate(-381.58156 39.744)"></path>
      <path id="path183358" style="font-style: normal; font-weight: 700; font-size: 72px; line-height: 1; font-family: &quot;Comfortaa Bold Alt1&quot;; font-variant-ligatures: none; text-align: center; text-anchor: middle; fill: rgb(0, 36, 60);" d="m 486.73756,-19.656 c 0,-3.672 -0.936,-7.128 -2.664,-10.152 -1.728,-3.024 -4.104,-5.472 -7.128,-7.2 -3.024,-1.728 -6.336,-2.664 -10.008,-2.664 -3.744,0 -7.128,0.936 -10.152,2.664 -3.024,1.728 -5.4,4.176 -7.128,7.2 -1.728,3.024 -2.592,6.408 -2.592,10.152 0,3.744 0.792,7.2 2.376,10.224 1.584,3.024 3.816,5.4 6.624,7.128 2.88,1.8 5.976,2.664 9.432,2.664 h 0.576 17.208 c 0.936,0 1.728,-0.36 2.448,-1.008 0.648,-0.648 1.008,-1.44 1.008,-2.448 V -3.6 Z m -30.96,6.912 c -1.152,-2.016 -1.656,-4.32 -1.656,-6.912 0,-2.52 0.504,-4.824 1.656,-6.912 1.152,-2.016 2.664,-3.672 4.608,-4.824 1.944,-1.152 4.104,-1.8 6.552,-1.8 2.376,0 4.536,0.648 6.48,1.8 1.944,1.152 3.456,2.808 4.608,4.824 1.08,2.088 1.656,4.392 1.656,6.912 0,2.592 -0.576,4.896 -1.656,6.912 -1.152,2.016 -2.664,3.672 -4.608,4.824 -1.944,1.152 -4.104,1.728 -6.48,1.728 -2.448,0 -4.608,-0.576 -6.552,-1.728 -1.944,-1.152 -3.456,-2.808 -4.608,-4.824 z" transform="translate(0 312.4142233313553) translate(377.38531553128206 35.6587317723594) scale(1.778918840180495) translate(-447.06556 39.672)"></path>
      <path id="path183360" style="font-style: normal; font-weight: 700; font-size: 72px; line-height: 1; font-family: &quot;Comfortaa Bold Alt1&quot;; font-variant-ligatures: none; text-align: center; text-anchor: middle; fill: rgb(0, 36, 60);" d="m 537.40981,-19.656 c 0,-3.744 -0.864,-7.128 -2.592,-10.152 -1.728,-3.024 -4.176,-5.472 -7.2,-7.2 -3.024,-1.728 -6.408,-2.664 -10.08,-2.664 h -0.288 -0.144 -15.912 c -1.008,0 -1.8,0.36 -2.448,1.008 -0.72,0.72 -1.008,1.512 -1.008,2.448 v 15.336 1.224 32.832 c 0,1.152 0.288,2.016 1.008,2.664 0.648,0.72 1.512,1.008 2.664,1.008 1.008,0 1.872,-0.288 2.592,-1.008 0.72,-0.648 1.08,-1.512 1.08,-2.664 v -19.44 c 1.656,2.088 3.672,3.672 6.12,4.824 2.376,1.152 4.968,1.728 7.776,1.728 3.456,0 6.552,-0.864 9.36,-2.592 2.808,-1.728 5.04,-4.104 6.624,-7.128 1.584,-3.024 2.448,-6.48 2.448,-10.224 z m -7.056,0 c 0,2.592 -0.576,4.896 -1.728,6.912 -1.152,2.016 -2.664,3.672 -4.608,4.824 -1.944,1.152 -4.104,1.728 -6.48,1.728 -2.448,0 -4.608,-0.576 -6.552,-1.728 -1.944,-1.152 -3.456,-2.808 -4.536,-4.824 -1.152,-2.016 -1.656,-4.32 -1.656,-6.912 0,-2.52 0.504,-4.824 1.656,-6.912 1.08,-2.016 2.592,-3.672 4.536,-4.824 1.944,-1.152 4.104,-1.8 6.552,-1.8 2.376,0 4.536,0.648 6.48,1.8 1.944,1.152 3.456,2.808 4.608,4.824 1.152,2.088 1.728,4.392 1.728,6.912 z" transform="translate(0 312.4142233313553) translate(476.4217299315206 35.6587317723594) scale(1.778918840180495) translate(-497.73781 39.672)"></path>
      <path id="path183362" style="font-style: normal; font-weight: 700; font-size: 72px; line-height: 1; font-family: &quot;Comfortaa Bold Alt1&quot;; font-variant-ligatures: none; text-align: center; text-anchor: middle; fill: rgb(0, 36, 60);" d="m 547.93081,-55.224 c -0.72,0.72 -1.008,1.584 -1.008,2.592 v 39.312 c 0,2.592 0.432,4.896 1.368,6.912 0.864,2.016 2.16,3.6 3.816,4.752 1.656,1.152 3.528,1.656 5.616,1.656 h 0.144 c 1.44,0 2.592,-0.288 3.528,-1.008 0.864,-0.648 1.368,-1.512 1.368,-2.592 0,-1.008 -0.36,-1.872 -0.936,-2.592 -0.576,-0.648 -1.368,-1.008 -2.304,-1.008 h -1.8 c -1.08,0 -1.944,-0.576 -2.592,-1.728 -0.72,-1.152 -1.008,-2.592 -1.008,-4.392 v -39.312 c 0,-1.008 -0.36,-1.872 -1.008,-2.592 -0.72,-0.648 -1.584,-1.008 -2.592,-1.008 -1.08,0 -1.944,0.36 -2.592,1.008 z" transform="translate(0 312.4142233313553) translate(572.8124472867008 6.19983577897041) scale(1.778918840180495) translate(-546.92281 56.232)"></path>
      <path id="path183364" style="font-style: normal; font-weight: 700; font-size: 72px; line-height: 1; font-family: &quot;Comfortaa Bold Alt1&quot;; font-variant-ligatures: none; text-align: center; text-anchor: middle; fill: rgb(0, 36, 60);" d="m 605.56569,-19.656 c 0,-3.672 -0.936,-7.128 -2.664,-10.152 -1.728,-3.024 -4.104,-5.472 -7.128,-7.2 -3.024,-1.728 -6.336,-2.664 -10.008,-2.664 -3.744,0 -7.128,0.936 -10.152,2.664 -3.024,1.728 -5.4,4.176 -7.128,7.2 -1.728,3.024 -2.592,6.408 -2.592,10.152 0,3.744 0.792,7.2 2.376,10.224 1.584,3.024 3.816,5.4 6.624,7.128 2.88,1.8 5.976,2.664 9.432,2.664 h 0.576 17.208 c 0.936,0 1.728,-0.36 2.448,-1.008 0.648,-0.648 1.008,-1.44 1.008,-2.448 V -3.6 Z m -30.96,6.912 c -1.152,-2.016 -1.656,-4.32 -1.656,-6.912 0,-2.52 0.504,-4.824 1.656,-6.912 1.152,-2.016 2.664,-3.672 4.608,-4.824 1.944,-1.152 4.104,-1.8 6.552,-1.8 2.376,0 4.536,0.648 6.48,1.8 1.944,1.152 3.456,2.808 4.608,4.824 1.08,2.088 1.656,4.392 1.656,6.912 0,2.592 -0.576,4.896 -1.656,6.912 -1.152,2.016 -2.664,3.672 -4.608,4.824 -1.944,1.152 -4.104,1.728 -6.48,1.728 -2.448,0 -4.608,-0.576 -6.552,-1.728 -1.944,-1.152 -3.456,-2.808 -4.608,-4.824 z" transform="translate(0 312.4142233313553) translate(615.4546973344065 35.6587317723594) scale(1.778918840180495) translate(-565.89369 39.672)"></path>
      <path id="path183366" style="font-style: normal; font-weight: 700; font-size: 72px; line-height: 1; font-family: &quot;Comfortaa Bold Alt1&quot;; font-variant-ligatures: none; text-align: center; text-anchor: middle; fill: rgb(0, 36, 60);" d="m 648.89394,-36.216 c 0,-1.296 -0.792,-2.232 -2.232,-2.808 -0.576,-0.216 -1.152,-0.36 -1.728,-0.36 -1.296,0 -2.232,0.72 -2.808,2.088 l -11.592,26.136 -13.176,-26.208 c -0.72,-1.296 -1.728,-2.016 -3.024,-2.016 -0.576,0 -1.008,0.144 -1.44,0.288 -0.648,0.288 -1.152,0.72 -1.512,1.224 -0.432,0.576 -0.576,1.152 -0.576,1.728 0,0.576 0.072,1.08 0.36,1.512 l 16.2,30.744 -7.2,16.2 c -0.288,0.576 -0.432,1.152 -0.432,1.728 0,1.296 0.72,2.232 2.16,2.808 0.648,0.288 1.224,0.432 1.728,0.432 1.296,0 2.232,-0.72 2.808,-2.232 l 22.032,-49.536 c 0.288,-0.648 0.432,-1.224 0.432,-1.728 z" transform="translate(0 312.4142233313553) translate(704.2445392152054 36.17106039833139) scale(1.778918840180495) translate(-610.80594 39.384)"></path>
    </g>
    <g id="tagline" style="font-style:normal;font-weight:500;font-size:32px;line-height:1;font-family:Raleway;font-variant-ligatures:none;text-align:center;text-anchor:middle"></g>
  </g>
</svg>
